<svg width="20" height="18" viewBox="0 0 20 18" fill="none" xmlns="http://www.w3.org/2000/svg">
<path d="M18.9304 11.7672H12.3139C11.9513 11.7672 11.6575 11.5027 11.6575 11.1764C11.6575 10.85 11.9513 10.5856 12.3139 10.5856H18.9301C19.2927 10.5856 19.5866 10.85 19.5866 11.1764C19.5866 11.5027 19.2929 11.7672 18.9304 11.7672Z" fill="#167D42"/>
<path d="M10.7225 13.1995C9.48314 13.1995 8.47485 12.292 8.47485 11.1766C8.47485 10.061 9.48314 9.1535 10.7225 9.1535C11.9621 9.1535 12.9704 10.061 12.9704 11.1766C12.9704 12.2918 11.9621 13.1995 10.7225 13.1995ZM10.7225 10.3349C10.207 10.3349 9.78773 10.7124 9.78773 11.1764C9.78773 11.6402 10.2072 12.0177 10.7225 12.0177C11.238 12.0177 11.6575 11.6402 11.6575 11.1764C11.6575 10.7124 11.238 10.3349 10.7225 10.3349Z" fill="#167D42"/>
<path d="M9.13104 11.7672H1.06977C0.707195 11.7672 0.41333 11.5027 0.41333 11.1764C0.41333 10.85 0.707195 10.5856 1.06977 10.5856H9.13126C9.49383 10.5856 9.78769 10.85 9.78769 11.1764C9.78769 11.5027 9.49361 11.7672 9.13104 11.7672Z" fill="#167D42"/>
<path d="M18.9304 7.25965H6.28522C5.92265 7.25965 5.62878 6.99517 5.62878 6.66886C5.62878 6.34254 5.92265 6.07806 6.28522 6.07806H18.9304C19.293 6.07806 19.5868 6.34254 19.5868 6.66886C19.5868 6.99517 19.293 7.25965 18.9304 7.25965Z" fill="#167D42"/>
<path d="M4.69366 8.69196C3.45409 8.69196 2.4458 7.7845 2.4458 6.66889C2.4458 5.55327 3.45409 4.64581 4.69366 4.64581C5.93323 4.64581 6.94152 5.55327 6.94152 6.66889C6.94152 7.7845 5.93302 8.69196 4.69366 8.69196ZM4.69366 5.8274C4.17814 5.8274 3.75868 6.20492 3.75868 6.66889C3.75868 7.13286 4.17814 7.51038 4.69366 7.51038C5.20918 7.51038 5.62865 7.13286 5.62865 6.66889C5.62865 6.20492 5.20897 5.8274 4.69366 5.8274Z" fill="#167D42"/>
<path d="M3.10232 7.25965H1.06977C0.707195 7.25965 0.41333 6.99517 0.41333 6.66886C0.41333 6.34254 0.707195 6.07806 1.06977 6.07806H3.10232C3.46489 6.07806 3.75875 6.34254 3.75875 6.66886C3.75875 6.99517 3.46467 7.25965 3.10232 7.25965Z" fill="#167D42"/>
<path d="M12.7651 2.75196H1.06977C0.707195 2.75196 0.41333 2.48748 0.41333 2.16117C0.41333 1.83485 0.707195 1.57037 1.06977 1.57037H12.7651C13.1277 1.57037 13.4215 1.83485 13.4215 2.16117C13.4215 2.48748 13.1277 2.75196 12.7651 2.75196Z" fill="#167D42"/>
<path d="M14.3563 4.18427C13.1169 4.18427 12.1086 3.27681 12.1086 2.1612C12.1086 1.04558 13.1169 0.138123 14.3563 0.138123C15.5959 0.138123 16.6041 1.04558 16.6041 2.1612C16.6041 3.27681 15.5959 4.18427 14.3563 4.18427ZM14.3563 1.31971C13.841 1.31971 13.4215 1.69723 13.4215 2.1612C13.4215 2.62517 13.841 3.00269 14.3563 3.00269C14.8718 3.00269 15.2913 2.62517 15.2913 2.1612C15.2913 1.69723 14.872 1.31971 14.3563 1.31971Z" fill="#167D42"/>
<path d="M18.9304 2.75196H15.9479C15.5854 2.75196 15.2915 2.48748 15.2915 2.16117C15.2915 1.83485 15.5854 1.57037 15.9479 1.57037H18.9304C19.2929 1.57037 19.5868 1.83485 19.5868 2.16117C19.5868 2.48748 19.2929 2.75196 18.9304 2.75196Z" fill="#167D42"/>
<path d="M18.9304 16.2748H6.28522C5.92265 16.2748 5.62878 16.0104 5.62878 15.6841C5.62878 15.3577 5.92265 15.0933 6.28522 15.0933H18.9304C19.293 15.0933 19.5868 15.3577 19.5868 15.6841C19.5868 16.0104 19.293 16.2748 18.9304 16.2748Z" fill="#167D42"/>
<path d="M4.69366 17.707C3.45409 17.707 2.4458 16.7995 2.4458 15.6841C2.4458 14.5685 3.45409 13.661 4.69366 13.661C5.93323 13.661 6.94152 14.5685 6.94152 15.6841C6.9413 16.7995 5.93302 17.707 4.69366 17.707ZM4.69366 14.8424C4.17814 14.8424 3.75868 15.2199 3.75868 15.6839C3.75868 16.1477 4.17814 16.5252 4.69366 16.5252C5.20918 16.5252 5.62865 16.1477 5.62865 15.6839C5.62843 15.2199 5.20897 14.8424 4.69366 14.8424Z" fill="#167D42"/>
<path d="M3.10232 16.2748H1.06977C0.707195 16.2748 0.41333 16.0104 0.41333 15.6841C0.41333 15.3577 0.707195 15.0933 1.06977 15.0933H3.10232C3.46489 15.0933 3.75875 15.3577 3.75875 15.6841C3.75875 16.0104 3.46467 16.2748 3.10232 16.2748Z" fill="#167D42"/>
</svg>
