<svg width="206" height="210" viewBox="0 0 206 210" fill="none" xmlns="http://www.w3.org/2000/svg">
<rect width="206" height="210" fill="white"/>
<path d="M95.2938 0.164087C92.9631 0.360962 90.2189 0.787525 88.0574 1.31252C85.0502 2.06721 80.4452 4.38049 71.4233 9.66331C61.1797 15.6844 60.146 16.2914 60.2211 16.3571C60.3339 16.4555 63.8863 15.061 65.6531 14.2242C67.8522 13.1742 70.5399 11.5992 74.9945 8.77737C77.062 7.46487 79.4491 6.02112 80.3137 5.56174C81.1595 5.11878 82.118 4.57737 82.4564 4.36409C83.2458 3.85549 84.5991 3.64221 88.3394 3.44534C90.0498 3.3469 92.2489 3.15003 93.2262 3.01877C95.1622 2.73987 96.6283 2.78909 101.12 3.21565C110.405 4.11799 120.611 6.57893 129.314 10.0078C132.753 11.3696 135.46 11.8125 136.362 11.1563C137.34 10.4508 135.967 8.38362 133.392 6.66096C130.366 4.67581 127.528 3.90471 125.104 4.44612C124.352 4.61018 124.126 4.57737 122.153 3.93752C112.529 0.836744 103.301 -0.459351 95.2938 0.164087Z" fill="#2C5E2E"/>
<path d="M43.136 1.42732C35.956 1.6406 27.7236 4.0195 20.9195 7.85857C19.9798 8.39997 18.9272 8.87575 18.5701 8.94138C17.6115 9.12185 12.5179 10.7133 10.7135 11.3859C8.79637 12.1242 6.5033 13.1906 4.68013 14.1914C3.38323 14.9297 0.187973 17.4562 0.37593 17.6039C0.432316 17.6531 1.25932 17.2593 2.2367 16.7179C4.69892 15.3726 7.68743 14.0765 12.4991 12.2554C14.7734 11.4023 17.8183 10.2047 19.2467 9.59763C20.694 8.9906 22.2916 8.35075 22.8179 8.17029C24.096 7.74372 25.6372 6.95622 26.7274 6.21794C28.513 5.00388 30.2798 4.67575 36.0124 4.49529C39.9407 4.38044 42.4593 4.49529 51.1241 5.24997C62.815 6.26716 68.5476 6.20154 74.2051 4.97107C75.4644 4.69216 75.6148 4.49529 75.0697 3.80622C74.1487 2.64138 71.4422 2.37888 65.5967 2.88747C60.9166 3.28122 57.0259 3.28122 55.5411 2.88747C51.1617 1.73904 47.4965 1.31247 43.136 1.42732Z" fill="#2C5E2E"/>
<path d="M130.442 2.24767C129.239 2.98595 128.75 3.62579 129.051 4.05236C129.483 4.65939 130.705 4.79064 136.738 4.92189C140.347 5.00392 142.922 5.13517 143.505 5.26642C145.177 5.64377 154.406 5.54533 159.199 5.11877C171.209 4.01955 176.604 4.46252 182.599 6.97267C183.746 7.44846 185.381 8.03908 186.265 8.28517C189.949 9.26955 194.422 11.5664 196.959 13.7649C200.305 16.636 200.7 19.343 198.106 21.3774C197.26 22.05 194.666 23.2969 194.121 23.2969C193.99 23.2969 193.407 23.5594 192.843 23.8711C192.279 24.1828 191.603 24.4453 191.321 24.4453C188.558 24.4453 179.649 36.7664 177.13 44.0344C176.585 45.6258 176.566 45.6586 175.138 46.8563C173.86 47.9227 173.333 48.2016 171.003 49.186C169.518 49.8094 167.958 50.4 167.525 50.5149C166.341 50.843 163.86 52.0078 162.582 52.8117C161.511 53.4844 160.515 54.6164 160.515 55.1086C160.515 55.2235 160.176 55.6664 159.782 56.093C157.996 57.9469 156.474 60.457 153.278 66.8063C152.075 69.1852 150.666 71.8102 150.158 72.6633C148.072 76.0758 146.117 78.0281 143.843 78.9633C142.621 79.4555 142.471 79.4883 140.027 79.5047C137.264 79.5211 135.385 79.8328 134.351 80.4563C133.58 80.8992 133.524 81.1125 134.05 81.5391C135.554 82.7695 141.024 82.7367 143.411 81.4899C145.741 80.2758 149.068 77.5524 151.342 74.9766C153.861 72.1383 155.289 69.9891 159.857 62.1797C161.736 58.9805 163.86 55.5024 164.574 54.4688L165.871 52.5985L167.751 51.7617C168.785 51.3188 170.044 50.6953 170.57 50.3836C171.078 50.0883 171.924 49.7274 172.45 49.5961C176.773 48.4805 180.306 45.4945 183.032 40.6547C183.652 39.5391 184.761 37.3406 185.513 35.7656C187.975 30.532 189.103 28.5633 190.606 26.7914C191.433 25.8235 191.49 25.6758 190.945 25.9219C190.738 26.0367 190.512 26.0695 190.456 26.0367C190.418 25.9875 191.753 25.2656 193.445 24.4289C195.136 23.5922 196.809 22.7391 197.166 22.5422C197.523 22.3289 198.576 21.9024 199.478 21.5906C203.387 20.2453 206 18.1781 206 16.4063C206 15.5203 205.474 14.7656 203.876 13.3219C199.309 9.20392 192.636 5.57814 186.077 3.67502C180.137 1.93595 175.326 1.47658 168.691 2.0508C160.947 2.70705 149.688 2.70705 138.994 2.0508C136.832 1.91955 134.238 1.75549 133.261 1.70627L131.475 1.60783L130.442 2.24767Z" fill="#2C5E2E"/>
<path d="M125.216 15.6187C124.897 15.7172 124.295 16.0289 123.92 16.3242C123.318 16.7836 123.205 16.9476 123.224 17.489C123.262 18.3258 123.882 19.3758 125.63 21.4922C127.585 23.8711 128.393 25.3312 128.506 26.7094L128.618 27.8086L128.073 27.382C126.739 26.3648 126.795 26.3648 124.784 27.4312C123.055 28.3336 122.961 28.4156 122.754 29.1047C122.134 31.2539 122.848 32.3039 124.897 32.3203C126.288 32.3203 127.66 31.8117 128.506 30.9586C128.844 30.614 129.145 30.3515 129.182 30.3515C129.314 30.3515 129.502 32.0414 129.784 35.8805C129.934 37.8984 130.16 40.0969 130.272 40.7367C130.667 43.0008 131.513 44.3133 132.716 44.5429C133.336 44.6578 134.802 44.2804 135.479 43.8375C135.892 43.5586 135.911 43.4929 135.723 42.5578C135.61 42.0328 135.31 39.2929 135.047 36.5039C134.464 30.3023 134.163 28.3992 133.43 25.807C132.302 21.8039 130.724 19.1297 128.149 16.8656C127.228 16.0617 126.363 15.4219 126.175 15.4383C125.987 15.4547 125.555 15.5367 125.216 15.6187Z" fill="#2C5E2E"/>
<path d="M70.4272 17.6203C66.9876 18.8672 64.4878 21.0656 62.4954 24.593C61.3677 26.5781 60.9918 27.6609 61.2361 28.1367C61.3489 28.35 61.8188 30.0234 62.2887 31.8609C62.7586 33.6984 63.3037 35.6672 63.5104 36.2578C64.8637 40.2609 66.5365 42 69.0551 42C70.3708 42 70.6715 41.8852 70.6715 41.4094C70.6715 40.5398 70.0137 38.3086 68.6792 34.6172C66.5553 28.793 66.0854 26.2172 66.6117 23.6578C67.0064 21.7055 67.777 20.393 69.2995 19.0641C69.9949 18.4406 70.8407 17.7844 71.1414 17.5875C71.8557 17.1445 71.7617 17.1445 70.4272 17.6203Z" fill="#2C5E2E"/>
<path d="M3.57117 20.7375C1.24051 21.3117 0 22.5914 0 24.4453C0 26.0367 1.35328 28.9898 3.30803 31.6969C5.03723 34.0758 20.8443 48.2508 25.0922 51.2203C29.4339 54.2555 33.1931 56.175 39.2453 58.4719C46.1432 61.0805 50.5038 65.0836 56.2929 74.1562C57.3078 75.7312 58.9243 78.2578 59.9016 79.7508L61.6684 82.4742L63.0217 82.8187C65.0704 83.3273 65.5403 83.393 66.2546 83.1797C67.871 82.7203 67.3071 81.1453 63.6232 75.9609C62.4954 74.3859 61.2361 72.3351 60.785 71.4328C60.3527 70.5141 59.6761 69.218 59.2814 68.5617C58.5484 67.3476 56.2177 64.5094 55.4659 63.9187C54.8644 63.443 54.9772 63.3281 55.8794 63.4265C57.8905 63.6726 64.2622 62.7539 64.9765 62.1305C65.3712 61.7859 65.1644 61.1461 64.5442 60.8015C63.7735 60.3422 61.8376 60.0797 57.3454 59.8008C49.8272 59.3414 47.0266 58.4555 45.7297 56.1422C45.2974 55.3711 45.2035 54.9937 45.2035 53.9437C45.2035 53.2383 45.1847 52.6641 45.1471 52.6641C44.9403 52.6641 41.7075 54.1734 41.4631 54.3867C41.1812 54.6328 40.8805 54.518 37.4409 52.9101C29.7347 49.268 28.5318 48.6117 27.8739 47.775C26.5958 46.1672 23.7953 43.5914 19.3595 39.9984C16.8221 37.9476 13.9839 35.5851 13.0442 34.732C8.25128 30.4008 5.78905 26.5945 4.98084 22.2305C4.83047 21.4266 4.6989 20.7047 4.6989 20.6226C4.6989 20.475 4.62372 20.4914 3.57117 20.7375Z" fill="#2C5E2E"/>
<path d="M72.3444 28.875C70.9911 29.6953 70.0701 30.6141 70.1453 31.057C70.2768 31.8938 72.4195 32.2219 74.6938 31.7625C76.7237 31.336 77.3816 30.5156 76.3666 29.6297C75.8779 29.2031 73.8856 28.2024 73.5473 28.2352C73.4721 28.2352 72.927 28.5141 72.3444 28.875Z" fill="#2C5E2E"/>
<path d="M122.792 38.2266C120.705 38.8172 119.86 39.8508 120.292 41.3109C120.612 42.4266 121.532 43.657 123.468 45.5602C126.175 48.218 128.524 49.7438 129.502 49.4649C131.212 48.9891 129.99 44.2148 127.228 40.6711C126.457 39.6867 124.653 38.1609 124.107 38.0297C123.92 37.9805 123.318 38.0789 122.792 38.2266Z" fill="#2C5E2E"/>
<path d="M76.611 41.4094C73.6976 42.7383 70.6716 45.3633 69.2055 47.8406C67.6267 50.5313 66.123 51.6797 63.2473 52.4344C61.5369 52.8774 58.1161 52.8445 55.9358 52.3524C52.7781 51.6469 50.5226 50.6625 48.004 48.8742L46.6507 47.9391L46.0305 48.3164C45.6734 48.5133 44.7712 49.0055 44.0194 49.3828L42.6473 50.0555L43.2299 50.6953C45.9553 53.6977 49.8836 55.3055 54.6013 55.3383C58.2101 55.3547 61.1422 54.7477 64.8261 53.2219C68.6416 51.6469 72.5135 48.825 74.581 46.118C75.1637 45.3469 75.9719 44.3953 76.3854 43.9852C78.0394 42.3117 78.7161 41.0813 78.077 40.9008C77.9643 40.868 77.3064 41.0977 76.611 41.4094Z" fill="#2C5E2E"/>
<path d="M130.084 52.3687C128.468 53.1726 127.81 53.8289 128.111 54.2719C128.412 54.682 129.276 55.0758 130.498 55.3547C132.077 55.7156 136.494 55.9781 138.073 55.7976C139.99 55.5844 143.599 54.2883 143.599 53.8125C143.599 53.4187 142.997 53.3203 137.396 52.7297C136.005 52.582 134.276 52.3195 133.543 52.1555C132.829 51.975 132.058 51.7945 131.851 51.7453C131.626 51.6961 130.949 51.9422 130.084 52.3687Z" fill="#2C5E2E"/>
<path d="M170.852 53.3531C169.499 53.9601 168.634 54.8133 168.484 55.6336C168.202 57.0773 169.311 58.6523 173.296 62.5242C176.622 65.7562 177.957 67.2984 178.878 68.9062C179.536 70.0711 179.573 70.2187 179.611 71.8594C179.648 75.075 180.081 76.7484 183.445 86.707C185.099 91.6125 185.625 94.5 185.456 97.9289C185.325 100.898 184.78 102.752 183.182 105.574C181.96 107.74 181.584 108.675 176.792 121.816C173.897 129.773 171.529 135.434 168.991 140.503C166.924 144.637 163.296 157.746 162.225 164.965C161.68 168.607 161.398 172.594 161.492 175.596L161.567 178.27L162.451 179.238C164.067 180.961 164.368 181.798 163.616 182.569C162.676 183.553 160.402 183.734 154.256 183.356C149.557 183.044 149.256 183.077 146.888 183.996C145.121 184.669 145.14 185.407 146.963 185.981C148.015 186.309 152.564 186.49 153.579 186.244C154.049 186.129 154.575 186.162 155.459 186.309C157.169 186.637 160.045 186.637 161.398 186.293C164.349 185.571 166.134 183.487 166.924 179.812C167.243 178.434 167.225 173.283 166.924 170.543C166.51 166.934 166.717 164.161 167.77 158.73C169.442 150.134 172.13 142.505 179.216 126.164C180.532 123.145 181.885 119.749 182.242 118.617C182.863 116.599 183.802 114.089 186.828 106.477C189.535 99.6679 190.437 95.9109 190.418 91.5469C190.418 88.3312 190.005 86.3625 188.727 83.5242C188.219 82.3922 187.186 79.7508 186.453 77.6836C182.787 67.4461 182.017 65.5429 180.062 62.1469C178.164 58.8492 175.739 55.9125 172.882 53.5172L172.036 52.8117L170.852 53.3531Z" fill="#2C5E2E"/>
<path d="M124.709 54.5344C123.6 54.9445 122.566 56.3883 122.303 57.8648L122.172 58.5375L123.13 58.2258C125.348 57.4875 126.758 56.5523 127.058 55.65C127.209 55.1742 127.171 55.0429 126.776 54.6984C126.269 54.2554 125.574 54.2062 124.709 54.5344Z" fill="#2C5E2E"/>
<path d="M70.0137 56.4539C68.8859 56.9953 67.871 57.5203 67.777 57.6023C67.5702 57.75 68.0213 58.7344 70.0513 62.5734C71.4045 65.1492 71.4797 65.4445 70.7467 65.4609C70.2956 65.4609 68.9987 66.6586 68.6792 67.3477C68.2845 68.2828 68.3784 70.1695 68.9423 71.7774C69.1679 72.4008 69.4874 73.5 69.6378 74.1891C69.9949 75.6656 70.4648 76.2891 71.2354 76.2891C72.194 76.2891 73.3969 74.632 74.0547 72.368L74.3743 71.2852L75.2388 73.5984C77.344 79.2094 77.8326 82.8188 77.062 87.3961C74.8629 100.57 70.2956 118.059 67.9086 122.522C66.762 124.688 65.4275 127.559 63.1909 132.727C60.691 138.502 60.5407 138.781 58.8303 141.832C57.3078 144.539 55.2027 147.459 53.6239 149.067C52.9472 149.773 52.4022 150.117 51.406 150.527C50.6918 150.823 49.9024 151.233 49.658 151.463L49.2257 151.873L50.0339 151.971C54.6764 152.513 60.4467 146.918 65.2584 137.156C65.7847 136.123 66.4989 134.564 66.856 133.711C67.2131 132.858 67.9461 131.266 68.51 130.184C73.6224 120.077 77.4003 108.429 80.3513 93.5977C80.6144 92.236 81.0091 90.661 81.1971 90.0703C81.9865 87.7406 82.212 86.1656 82.212 82.9336C82.212 79.5539 82.0053 78.0445 81.0279 74.5664C80.4076 72.4172 79.1483 69.0867 77.9642 66.5273C76.8365 64.0828 72.3443 55.4531 72.194 55.4531C72.1376 55.4531 71.1602 55.9125 70.0137 56.4539Z" fill="#2C5E2E"/>
<path d="M140.497 56.5359C140.084 56.6672 139.595 56.8312 139.426 56.8805C139.238 56.9297 138.881 57.2906 138.618 57.6844C138.11 58.4391 137.227 59.1117 136.475 59.3086C135.686 59.5219 133.975 59.407 131.663 58.9969C126.758 58.1437 126.852 58.1437 125.555 58.7508C123.863 59.5383 123.374 60.2273 123.863 61.0477C124.164 61.507 124.991 61.8187 126.532 62.032C127.284 62.1305 128.224 62.3109 128.618 62.4422C130.705 63.1148 134.201 62.1797 138.167 59.85C140.065 58.7508 142.283 56.9625 142.283 56.5359C142.283 56.1914 141.512 56.1914 140.497 56.5359Z" fill="#2C5E2E"/>
<path d="M118.112 60.4734C116.157 61.3758 113.432 63.4266 111.909 65.1656C110.781 66.4453 109.954 68.0039 109.954 68.8734C109.954 69.5461 108.601 75.1898 107.229 80.1445C103.752 92.8101 100.293 103.523 96.0081 114.844C92.9444 122.965 92.3993 124.228 90.9144 126.541C90.1438 127.739 88.0951 131.135 86.3659 134.121C80.6332 143.965 78.0582 147.623 74.1112 151.479C73.5661 152.02 72.833 152.906 72.5135 153.464C71.7993 154.629 69.8445 156.417 68.5476 157.073C66.0666 158.337 62.2887 158.829 59.319 158.255C56.0674 157.615 53.1728 155.827 51.6128 153.48C51.2181 152.89 50.8422 152.414 50.767 152.414C50.4099 152.414 48.6619 153.464 48.1544 153.956C46.8951 155.203 47.2146 156.548 49.113 158.107C51.0489 159.682 54.1126 160.896 57.1387 161.29C58.492 161.454 58.8303 161.437 61.1046 161.044C66.6117 160.076 70.446 158.205 74.9006 154.317C77.1185 152.381 79.9378 149.231 82.0993 146.245C82.8323 145.245 85.0314 141.996 86.9862 139.027C88.9409 136.057 90.9896 132.956 91.5347 132.152C93.1887 129.691 96.3088 123.966 97.85 120.586C99.8236 116.205 102.041 110.266 104.203 103.523C105.218 100.406 106.195 97.4203 106.421 96.8789C108.883 90.6937 109.409 88.9547 111.383 80.4726C112.68 74.9437 113.714 71.2687 114.672 68.7422C115.913 65.4445 116.589 64.2469 117.961 62.8687C119.127 61.6875 119.916 60.6047 119.916 60.2109C119.916 59.9156 119.051 60.0305 118.112 60.4734Z" fill="#2C5E2E"/>
<path d="M152.47 75.4523C150.929 75.9938 149.275 78.6516 148.542 81.7852C148.241 83.0648 148.222 83.8688 148.297 87.9375C148.504 100.242 148.448 101.44 147.452 104.344C147.188 105.115 146.982 106.247 146.907 107.379C146.681 110.595 146.117 113.416 144.895 117.19C144.35 118.847 143.599 120.799 140.121 129.281C138.392 133.498 137.64 135.762 136.832 139.027C136.513 140.372 136.061 141.963 135.855 142.554C135.159 144.555 133.411 148.198 131.156 152.414C127.04 160.059 126.307 161.766 124.615 167.721C122.905 173.808 121.852 178.664 121.232 183.356C121.119 184.16 120.95 187.245 120.856 190.23L120.687 195.645L121.138 196.793C121.927 198.877 123.412 200.862 125.536 202.699C128.017 204.848 129.953 205.193 130.442 203.585C130.817 202.355 130.517 201.223 129.389 199.648C127.716 197.334 126.645 194.841 125.987 191.789C125.743 190.608 125.667 189.377 125.667 186.703C125.667 181.83 125.855 180.83 128.825 168.328C130.009 163.406 130.329 162.602 135.047 152.578C139.99 142.062 142.132 136.877 143.599 131.775C144.031 130.298 144.764 128.264 145.234 127.263C148.185 120.98 150.271 114.204 151.587 106.608C152.865 99.2414 153.391 92.5477 153.673 80.5875C153.805 74.5336 153.917 74.9438 152.47 75.4523Z" fill="#2C5E2E"/>
<path d="M174.311 97.5187C168.973 99.2414 165.063 103.638 161.304 112.137C160.59 113.761 159.18 116.78 158.165 118.863C155.459 124.458 152.771 130.413 151.869 132.727C151.436 133.859 151.023 134.843 150.948 134.909C150.854 134.974 149.613 135.171 148.185 135.335C145.929 135.581 145.422 135.68 144.538 136.139C143.467 136.664 142.471 137.402 142.471 137.632C142.471 137.862 142.903 138.091 143.467 138.173C144.256 138.305 147.189 138.026 148.767 137.665L150.215 137.353L150.083 137.78C148.335 143.817 147.903 149.33 148.843 153.48C149.369 155.843 149.576 160.781 149.256 163.423C148.448 169.772 145.948 176.039 142.001 181.502L140.967 182.963L141.569 182.848C143.617 182.487 146.004 180.928 147.621 178.91C150.421 175.432 152.564 169.952 153.842 162.98C154.124 161.536 154.105 161.142 153.805 158.173C153.56 155.794 153.485 153.316 153.466 148.641C153.466 142.127 153.541 141.356 154.406 137.402C154.914 135.089 156.135 131.595 157.131 129.609C157.526 128.838 158.297 127.296 158.879 126.164C159.443 125.032 160.984 121.603 162.3 118.535C165.345 111.431 166.078 109.856 167.638 107.133C169.743 103.458 171.717 100.915 174.423 98.3883C175.156 97.6992 175.701 97.125 175.607 97.1414C175.532 97.1414 174.931 97.3055 174.311 97.5187Z" fill="#2C5E2E"/>
<path d="M103.752 111.087C101.177 112.088 101.045 113.006 103.376 113.597C104.616 113.925 108.582 114.352 110.424 114.368C111.514 114.368 111.684 114.401 111.383 114.565C111.176 114.68 110.781 114.942 110.481 115.172L109.936 115.582L110.33 121.373C110.537 124.556 110.706 127.411 110.706 127.706C110.706 128.166 110.556 128.346 109.823 128.855C107.586 130.364 106.176 132.612 105.293 136.008C104.898 137.534 104.861 143.883 105.218 145.934C105.725 148.69 106.44 151.758 106.571 151.758C106.891 151.758 108.376 150.659 108.958 149.986C109.297 149.592 109.766 148.739 109.992 148.099C110.462 146.803 110.499 145.212 110.311 136.336C110.255 133.153 110.293 132.103 110.518 131.332L110.781 130.348L110.932 133.055C111.12 136.467 110.969 143.259 110.593 147C110.124 151.856 109.278 156.401 108.169 159.961C107.906 160.814 107.398 162.553 107.06 163.816C105.782 168.443 105.049 170.461 101.741 178.172C98.8837 184.849 98.1131 186.884 97.1733 190.066C95.9516 194.217 95.7825 195.349 95.7637 199.582C95.7637 203.634 96.0268 205.734 96.5343 205.734C96.7035 205.734 96.7974 205.849 96.7598 206.013C96.6659 206.505 101.609 208.261 105.425 209.098C108.563 209.77 109.936 209.918 113.15 209.918C116.458 209.902 118.13 209.688 120.687 208.934C122.735 208.327 125.31 207.063 124.953 206.85C124.916 206.834 121.382 206.784 117.097 206.719C110.969 206.62 108.939 206.538 107.605 206.325C105.387 205.948 103.395 205.341 102.023 204.602C101.402 204.274 100.726 203.946 100.538 203.848C100.312 203.749 100.218 203.602 100.293 203.438C100.594 202.863 100.932 201.157 100.932 200.238C100.932 199.697 100.838 197.761 100.707 195.923C100.387 191.264 100.745 189.033 102.117 187.212C102.568 186.605 103.056 185.423 107.605 173.578C113.601 158.041 115.198 151.495 115.819 140.142C116.119 134.367 115.649 124.08 114.691 115.812L114.541 114.565L115.988 114.466C117.999 114.319 121.42 113.072 121.42 112.465C121.42 111.809 119.991 111.612 112.962 111.316C109.71 111.185 106.59 110.988 106.026 110.906C104.748 110.709 104.767 110.693 103.752 111.087Z" fill="#2C5E2E"/>
<path d="M86.8734 144.244C85.5201 144.818 84.7682 145.901 84.7682 147.279C84.7682 148.214 85.2945 149.986 86.5538 153.152C87.2305 154.859 87.7755 156.466 87.7755 156.729C87.7755 156.991 88.1139 158.205 88.5086 159.436C91.7978 169.477 92.7188 173.775 92.7376 179.32C92.7564 182.454 92.5496 184.275 91.9858 186.506C91.6662 187.704 91.7226 187.95 92.606 189.098C94.0721 191.051 95.3878 190.575 96.4967 187.688C97.6057 184.751 98.0568 179.648 97.4741 176.597C97.3049 175.711 96.8162 172.971 96.4027 170.543C95.5193 165.375 94.4668 160.65 93.3954 156.942C91.9106 151.823 88.6401 144.014 87.9635 143.932C87.8131 143.916 87.3245 144.047 86.8734 144.244Z" fill="#2C5E2E"/>
</svg>
