<svg width="23" height="29" viewBox="0 0 23 29" fill="none" xmlns="http://www.w3.org/2000/svg">
<path d="M17.8125 13.2377H4.6875C3.65197 13.2377 2.8125 14.3153 2.8125 15.6446V24.0685C2.8125 25.3978 3.65197 26.4754 4.6875 26.4754H17.8125C18.848 26.4754 19.6875 25.3978 19.6875 24.0685V15.6446C19.6875 14.3153 18.848 13.2377 17.8125 13.2377Z" stroke="#2C5E2E" stroke-width="3" stroke-linecap="round" stroke-linejoin="round"/>
<path d="M6.5625 13.2377V8.424C6.5625 6.82815 7.05636 5.29767 7.93544 4.16924C8.81451 3.04081 10.0068 2.40686 11.25 2.40686C12.4932 2.40686 13.6855 3.04081 14.5646 4.16924C15.4436 5.29767 15.9375 6.82815 15.9375 8.424V13.2377" stroke="#2C5E2E" stroke-width="3" stroke-linecap="round" stroke-linejoin="round"/>
</svg>
