<svg width="94" height="94" viewBox="0 0 94 94" fill="none" xmlns="http://www.w3.org/2000/svg">
<path d="M70.199 35.6906V34.3687L62.3734 25.1891C59.9655 22.5453 57.1409 21.3336 53.2512 21.3336H40.5172C36.5813 21.3336 33.803 22.6555 31.3951 25.1891L23.5695 34.3687V35.6906C7.6867 51.2226 0.416748 64.5516 0.416748 81.8461L3.19507 81.993C3.19507 81.8461 3.93596 79.0555 10.0946 79.3492C14.0305 79.4961 16.2532 80.818 18.2906 81.993C20.1429 83.0211 21.8099 84.0492 24.264 84.0492C25.7458 84.0492 27.598 83.6086 30.0522 82.4336C31.9044 81.5523 33.7567 80.9648 35.47 80.5242H35.5626V87.3172C35.5626 89.6305 37.8778 91.4664 40.7951 91.4664C43.7123 91.4664 46.0276 89.6305 46.0276 87.3172V80.5242H48.1576V87.3172C48.1576 89.6305 50.4729 91.4664 53.3902 91.4664C56.3074 91.4664 58.6227 89.6305 58.6227 87.3172V80.5976C60.1971 80.9281 61.9104 81.4789 63.67 82.4336C65.8926 83.6086 67.7911 84.0492 69.4581 84.0492C71.866 84.0492 73.5793 83.0211 75.4315 81.993C77.469 80.818 79.9232 79.4961 83.6276 79.3492C89.7862 79.0555 90.5271 81.8461 90.5271 81.993L93.3054 81.8461C93.3054 64.5516 85.8966 51.2226 70.199 35.6906ZM48.1576 79.2391H46.0276V56.8039C46.0276 56.3266 46.4443 55.9594 47.0926 55.9594C47.6946 55.9594 48.1576 56.2898 48.1576 56.8039V79.2391ZM83.4887 77.8805C78.9971 78.0273 76.404 79.643 74.1813 80.818C71.403 82.4336 69.5044 83.6086 64.6887 81.2586C62.6512 80.1937 60.6138 79.6062 58.7153 79.2758V48.6523H60.2897V45.8984H58.7153V48.6156H51.399C50.7507 49.9008 49.1764 50.8187 47.2778 50.8187C45.3793 50.8187 43.8049 49.9008 43.1567 48.6156H35.5163L35.5626 79.1656H34.9143C32.8769 79.4594 30.6079 80.1937 28.3852 81.2219C23.7084 83.5719 21.8562 82.5437 18.8926 80.7812C16.67 79.4594 14.0305 77.9906 9.58522 77.8437C6.06601 77.6969 3.79704 78.4312 2.50049 79.3125C3.79704 64.0375 9.95567 52.2875 23.6158 38.518V52.9852C23.6158 54.7477 25.468 56.2531 27.7369 56.2531C30.0059 56.2531 31.8581 54.7844 31.8581 52.9852V36.9758L35.5626 32.6797L35.6089 45.8617H43.2493C43.9438 44.65 45.4719 43.8422 47.2315 43.8422C48.9911 43.8422 50.5192 44.6867 51.2138 45.8617H58.669V32.643L62.3734 36.9391V52.9484C62.3734 54.7109 64.2256 56.2164 66.4946 56.2164C68.7173 56.2164 70.6158 54.7476 70.6158 52.9484V38.4812C84.2759 52.2508 90.4345 64.1476 90.9902 79.2758C89.2769 78.5047 87.0079 77.7336 83.4887 77.8805Z" fill="#076630"/>
<path d="M33.9419 45.8984V48.6523H35.5163V48.6156V45.8984H33.9419Z" fill="#076630"/>
<path d="M47 18.3961C52.2938 18.3961 56.5852 14.9931 56.5852 10.7953C56.5852 6.59751 52.2938 3.19452 47 3.19452C41.7062 3.19452 37.4148 6.59751 37.4148 10.7953C37.4148 14.9931 41.7062 18.3961 47 18.3961Z" fill="#076630"/>
</svg>
