<svg width="23" height="29" viewBox="0 0 23 29" fill="none" xmlns="http://www.w3.org/2000/svg">
<path d="M19.205 4.22934C17.0801 1.50206 14.255 0 11.25 0C8.24502 0 5.4199 1.50206 3.29502 4.22934C1.17023 6.95675 0 10.5829 0 14.44C0 18.2971 1.17023 21.9233 3.29502 24.6507C5.4199 27.3779 8.24502 28.88 11.25 28.88C12.7684 28.88 14.2419 28.4981 15.6292 27.7449L15.087 26.0996C13.8722 26.7592 12.5812 27.0936 11.25 27.0936C5.81414 27.0936 1.39175 21.4172 1.39175 14.44C1.39175 7.46277 5.81414 1.78639 11.25 1.78639C16.6859 1.78639 21.1082 7.46277 21.1082 14.44C21.1082 17.4961 19.6453 18.8881 18.2861 18.8881C16.9268 18.8881 15.4639 17.4962 15.4639 14.44C15.4639 11.4576 13.5736 9.03122 11.25 9.03122C8.92642 9.03122 7.0361 11.4576 7.0361 14.44C7.0361 17.4224 8.92642 19.8488 11.25 19.8488C12.6257 19.8488 13.8495 18.9981 14.6191 17.6852C14.8161 18.1959 15.0641 18.6579 15.3632 19.0615C16.1339 20.1016 17.1719 20.6744 18.2861 20.6744C19.4002 20.6744 20.4383 20.1016 21.209 19.0615C22.0536 17.9217 22.5 16.3236 22.5 14.44C22.5 10.5829 21.3298 6.95675 19.205 4.22934ZM11.25 18.0624C9.69388 18.0624 8.42785 16.4374 8.42785 14.44C8.42785 12.4426 9.69388 10.8176 11.25 10.8176C12.8061 10.8176 14.0721 12.4426 14.0721 14.44C14.0721 16.4374 12.8061 18.0624 11.25 18.0624Z" fill="#2C5E2E"/>
</svg>
