<svg width="84" height="79" viewBox="0 0 84 79" fill="none" xmlns="http://www.w3.org/2000/svg">
<path d="M58.4058 53.6224C58.4058 57.3164 61.5968 60.3175 65.5246 60.3175C69.4524 60.3175 72.6361 57.3164 72.6361 53.6224C72.6361 49.9251 69.4524 46.9274 65.5246 46.9274C61.5968 46.9274 58.4058 49.9251 58.4058 53.6224ZM62.3992 53.6224C62.3992 52.0036 63.8032 50.6865 65.5246 50.6865C67.246 50.6865 68.6427 52.007 68.6427 53.6224C68.6427 55.2448 67.2423 56.5618 65.5246 56.5618C63.8032 56.5618 62.3992 55.2448 62.3992 53.6224Z" fill="#DC072E"/>
<path d="M3.90587 51.1804C3.79647 51.6571 3.72353 52.1407 3.72353 52.6415C3.72353 53.0565 3.78188 53.4681 3.85846 53.8694H0V51.1804H3.90587Z" fill="#DC072E"/>
<path d="M26.1448 51.1804V53.8694H23.2054C23.2638 53.4681 23.3039 53.0565 23.3039 52.6415C23.3039 52.1407 23.2528 51.6571 23.1689 51.1804H26.1448Z" fill="#DC072E"/>
<path d="M56.7099 53.8625C56.7099 54.1129 56.7282 54.3599 56.7537 54.6H26.9399V52.6415H56.8157C56.7537 53.0462 56.7099 53.4475 56.7099 53.8625Z" fill="#DC072E"/>
<path d="M27.538 24.7842C27.3302 24.7842 27.1405 24.7842 26.9399 24.7842V50.2578V52.079H56.9178C57.7858 48.3199 61.3598 45.4868 65.623 45.4868C69.5253 45.4868 72.8403 47.8671 74.0438 51.1632L74.3976 51.3793H81.7097V43.8473H84V18.1954H27.538V24.7842ZM78.5879 43.8473H79.7002V48.0112H78.5879V43.8473Z" fill="#DC072E"/>
<path d="M82.5047 51.9418V53.9003H74.5581C74.5763 53.6568 74.6018 53.4132 74.6018 53.1629C74.6018 52.7478 74.5581 52.3397 74.4888 51.9418C74.4888 51.9418 82.5047 51.9418 82.5047 51.9418Z" fill="#DC072E"/>
<path d="M0.26268 50.443H4.59889C5.64557 46.5741 9.37274 43.7033 13.8001 43.7033C18.2348 43.7033 21.9583 46.5741 23.0014 50.443H26.1961V24.7396H6.14155L0.259033 36.8573V39.7932V50.443H0.26268ZM2.88118 37.5947L7.1554 26.6946H24.0079V33.0639H16.2655L10.5398 37.5947H2.88118Z" fill="#DC072E"/>
<path d="M6.19604 53.6224C6.19604 57.5874 9.60958 60.8046 13.8291 60.8046C18.045 60.8046 21.4621 57.5874 21.4621 53.6224C21.4621 49.661 18.0413 46.4437 13.8291 46.4437C9.60958 46.4437 6.19604 49.661 6.19604 53.6224ZM10.4776 53.6224C10.4776 51.8869 11.9837 50.4738 13.8291 50.4738C15.6781 50.4738 17.177 51.8869 17.177 53.6224C17.177 55.3614 15.6744 56.7711 13.8291 56.7711C11.9837 56.7711 10.4776 55.3614 10.4776 53.6224Z" fill="#DC072E"/>
</svg>
