<svg width="80" height="80" viewBox="0 0 80 80" fill="none" xmlns="http://www.w3.org/2000/svg">
<path d="M66.8764 33.7966L58.0344 19.6308C57.0548 18.0612 55.335 17.1084 53.4847 17.1084H5.36313C2.40089 17.1084 0 19.5093 0 22.4715V52.6123C0 55.5745 2.40089 57.9754 5.36313 57.9754H6.77006C8.12514 60.8679 11.0445 62.8916 14.4447 62.8916C17.8449 62.8916 20.7625 60.8679 22.1175 57.9754H57.8842C59.2393 60.8679 62.1587 62.8916 65.5589 62.8916C68.9555 62.8916 71.8766 60.8679 73.2299 57.9754H74.6369C77.5973 57.9754 80 55.5745 80 52.6123V48.1502C80 40.6472 74.2185 34.4527 66.8764 33.7966ZM14.4572 57.9128C12.5193 57.9128 10.9479 56.3415 10.9479 54.4036C10.9479 52.4657 12.5193 50.8925 14.4572 50.8925C16.3951 50.8925 17.9665 52.4657 17.9665 54.4036C17.9665 56.3415 16.3951 57.9128 14.4572 57.9128ZM46.5555 37.5437V27.8346V22.4733H53.4847L62.8952 37.5437H46.5555V37.5437ZM65.5571 57.9128C63.6192 57.9128 62.0478 56.3415 62.0478 54.4036C62.0478 52.4657 63.6192 50.8925 65.5571 50.8925C67.495 50.8925 69.0664 52.4657 69.0664 54.4036C69.0664 56.3415 67.495 57.9128 65.5571 57.9128Z" fill="#DC072E"/>
</svg>
